<?xml version="1.0" encoding="UTF-8"?> <svg xmlns="http://www.w3.org/2000/svg" width="124" height="41" viewBox="0 0 124 41" fill="none"><path d="M38.1097 24.4089C41.1548 23.2019 44.3397 20.7254 44.6192 17.1984C44.9453 13.0288 40.7972 9.97218 41.5121 5.77154C41.5588 5.52065 41.2635 5.25434 41.0306 5.37965C38.607 6.71203 36.9136 9.07877 36.4785 11.8535C36.1523 14.001 36.898 16.0701 37.4573 18.1392C37.2086 17.622 36.898 17.1202 36.5563 16.6658C34.8784 14.4557 32.2528 13.3428 29.7982 12.2611C29.6429 12.1826 29.4408 12.3238 29.472 12.512C29.8759 15.0044 29.8759 17.2772 31.3519 19.4402C32.7191 21.4154 34.8162 23.1393 36.9759 24.1583C37.0225 24.174 37.0537 24.1112 37.0225 24.0798C35.3135 22.4654 33.2628 21.3212 31.8648 19.3617C30.42 17.324 30.3577 15.2078 30.0005 12.8722C32.1598 13.7656 34.3661 14.7845 35.8884 16.6184C37.4576 18.4994 37.908 20.8194 37.7683 23.1861C37.7683 23.2019 37.7683 23.2176 37.7527 23.2332C37.7527 23.2332 37.7527 23.2332 37.7527 23.2489C37.7371 23.4213 37.7371 23.5938 37.7215 23.7505C37.7215 23.7505 37.706 23.7505 37.706 23.7661C37.3331 23.9542 37.706 24.5656 38.1097 24.4089ZM38.3584 22.2456C39.71 19.7062 40.0051 17.5275 38.7934 14.8156C38.7312 14.6589 38.4517 14.7061 38.4984 14.8941C38.7782 16.0698 39.1819 17.2141 39.213 18.4366C39.2441 19.7219 38.8246 20.8976 38.3586 22.0732C38.3586 21.5403 38.312 20.9918 38.2189 20.4589C38.1103 18.4212 37.2401 16.4617 36.9761 14.3144C36.6033 11.1796 38.0791 8.0601 40.7047 6.3829C40.4872 9.42387 42.5846 11.8377 43.5012 14.6593C44.8996 19.0169 41.4816 21.5403 38.2189 23.437C38.3117 23.0451 38.3584 22.6375 38.3584 22.2456Z" fill="white"></path><path d="M34.5515 19.0479C33.7902 18.5308 32.8113 18.468 32.5319 17.4178C32.5007 17.3236 32.3454 17.3393 32.3454 17.4335C32.2212 18.9541 34.2097 19.0479 34.971 19.9884C35.7634 20.976 36.0273 22.3084 37.1926 22.998C37.2237 23.0137 37.2548 22.9666 37.2237 22.9509C36.4002 22.0889 36.0896 20.9603 35.4372 19.9884C35.1882 19.6123 34.9243 19.2988 34.5515 19.0479Z" fill="white"></path><path d="M44.4303 4.78405L45.5644 5.33264C49.3708 7.32323 51.1106 10.7718 50.0232 15.6623C48.2675 23.5939 41.0278 27.9515 34.4561 26.3839C28.5059 24.9731 23.2859 19.1577 26.0823 11.6495C28.739 4.51746 36.1184 2.84031 42.0067 3.05977C42.5815 3.09121 43.0322 2.54256 43.0474 1.8527C43.0474 1.16311 42.5813 0.583133 42.0219 0.551696C35.3571 0.426441 27.3718 2.6208 24.482 10.7404C21.9186 17.9666 25.5539 24.6754 31.4732 27.1991L32.7782 27.6849C37.8274 29.0173 42.255 28.4059 46.279 24.4559C50.3493 20.4587 53.6431 11.6338 48.5161 6.75895C47.1334 5.45795 46.077 5.11318 44.4303 4.78405Z" fill="white"></path><path d="M11.6509 13.5306C10.346 12.3706 8.76113 11.5244 6.91243 11.0226C7.48727 10.6934 8.01544 10.2545 8.49723 9.70588C9.30518 8.78109 9.70916 7.82491 9.70916 6.90011C9.70916 5.39535 8.97902 4.14142 7.53425 3.18524C6.15142 2.26045 4.41159 1.79004 2.37644 1.79004L0.542969 1.79037V27.1522H2.37616C5.57658 27.1522 8.35748 26.3527 10.6102 24.7697C12.9096 23.1553 14.0901 21.2116 14.0901 19.0015C14.0901 16.8225 13.2669 14.9886 11.6509 13.5306ZM2.76458 10.4586V3.51465C4.054 3.51465 5.18816 3.87516 6.13586 4.54934C7.06801 5.22324 7.5187 5.99134 7.5187 6.90072C7.5187 7.80977 7.05246 8.60931 6.10503 9.34597C5.1415 10.0667 4.02289 10.4429 2.76458 10.4586ZM2.76458 25.4593V12.12C5.28153 12.12 7.45644 12.7939 9.25847 14.1263C11.045 15.443 11.8996 16.9635 11.8996 18.766C11.8996 20.5684 11.0297 22.0889 9.22737 23.4213C7.42533 24.7697 5.25042 25.4593 2.76458 25.4593Z" fill="white"></path><path d="M110.445 1.96246V3.70243H116.069V27.34H117.918V3.70243H123.48V1.96246H110.445Z" fill="white"></path><path d="M100.609 1.47668C97.0509 1.47668 93.9594 2.77763 91.3958 5.34825C88.8324 7.91881 87.543 11.0225 87.543 14.5964C87.543 16.8693 88.1179 19.0323 89.2675 21.0389C90.4172 23.0451 91.9862 24.6755 93.9594 25.8823C95.9479 27.0894 98.1075 27.7161 100.407 27.7161H100.764C103.141 27.7161 105.378 27.0734 107.398 25.8195L107.584 25.7099V23.5312L106.978 23.9545C105.021 25.3026 102.877 25.9765 100.609 25.9765C97.5479 25.9765 94.8916 24.8479 92.7008 22.6222C90.5103 20.3964 89.4073 17.7002 89.4073 14.5967C89.4073 11.493 90.5103 8.79708 92.7008 6.58698C94.8912 4.37693 97.5479 3.24831 100.609 3.24831C102.877 3.24831 105.021 3.93796 106.978 5.27034L107.584 5.69362V3.49921L107.382 3.38964C105.269 2.10345 102.986 1.47668 100.609 1.47668Z" fill="white"></path><path d="M61.9883 27.3399H63.8681L68.4203 17.9664H80.9578L85.5718 27.3399H87.5759L74.7745 0.880859L61.9883 27.3399ZM69.2127 16.2264L74.6658 4.9405L80.1656 16.2264H69.2127Z" fill="white"></path><path d="M55.4014 27.34H57.2657V3.70243H62.8119V1.96246H49.793V3.70243H55.4014V27.34Z" fill="white"></path><path d="M20.0089 1.96301H18.1602V27.3248H20.0089V1.96301Z" fill="white"></path><path d="M26.5192 37.2624C26.5192 37.7482 26.4881 38.0932 26.4258 38.2657C26.3481 38.4381 26.2394 38.5791 26.0686 38.6889C25.8821 38.7986 25.6801 38.8613 25.447 38.8613C25.2139 38.8613 25.0119 38.8143 24.8566 38.7046C24.7013 38.595 24.5768 38.4694 24.5149 38.2971C24.437 38.1404 24.4062 37.8423 24.4062 37.4351V32.7012H23.0234V37.0589C23.0234 37.9365 23.1012 38.5479 23.2721 38.9085C23.443 39.2689 23.7227 39.5824 24.1112 39.8333C24.4996 40.0842 24.9655 40.1937 25.4784 40.1937C25.8669 40.1937 26.2241 40.131 26.5347 40.0056C26.8454 39.8803 27.0941 39.6765 27.3271 39.4099C27.5603 39.1433 27.7156 38.877 27.8087 38.5791C27.8865 38.2968 27.9329 37.7796 27.9329 37.0429V32.6852L26.55 32.6855V37.2624H26.5192Z" fill="white"></path><path d="M4.53552 33.1081C4.0229 32.8415 3.2305 32.7162 2.17415 32.7162L0.542969 32.7165V40.0366H2.20531C3.13746 40.0366 3.80533 39.9738 4.1782 39.8485C4.56662 39.7389 4.90839 39.5194 5.23455 39.2057C5.5607 38.8923 5.82499 38.5004 6.01139 38.03C6.1978 37.5596 6.29117 37.0424 6.29117 36.4781C6.29117 35.6786 6.13586 34.9891 5.79415 34.3933C5.45239 33.7977 5.03286 33.3747 4.53552 33.1081ZM4.62888 37.7166C4.44242 38.0614 4.20936 38.3123 3.92985 38.4533C3.65002 38.61 3.19966 38.6728 2.56257 38.6728H1.92548V34.0488L2.39172 34.0486C3.24605 34.0486 3.88314 34.2366 4.25601 34.6285C4.69109 35.0519 4.90866 35.6632 4.90866 36.4311C4.89311 36.9485 4.79974 37.3718 4.62888 37.7166Z" fill="white"></path><path d="M12.707 40.0369H16.6684V38.6731H14.074V36.745H16.6684V35.3969H14.074V34.0802H16.6684V32.7167H12.707V40.0369Z" fill="white"></path><path d="M90.9604 32.7167L88.1484 40.0369H89.5779L90.1528 38.5321H93.1201L93.6794 40.0369H95.1241L92.3277 32.7167H90.9604ZM90.6654 37.184L91.6598 34.6603L92.6231 37.184H90.6654Z" fill="white"></path><path d="M105.736 37.5288L102.614 32.7167H101.309V40.0369H102.676V35.2245L105.798 40.0369H107.119V32.7167H105.736V37.5288Z" fill="white"></path><path d="M117.852 33.1081C117.34 32.8415 116.547 32.7162 115.491 32.7162L113.859 32.7165V40.0366H115.522C116.454 40.0366 117.122 39.9738 117.495 39.8485C117.883 39.7389 118.225 39.5194 118.551 39.2057C118.877 38.8923 119.141 38.5004 119.328 38.03C119.514 37.5596 119.608 37.0424 119.608 36.4781C119.608 35.6786 119.452 34.9891 119.11 34.3933C118.784 33.7979 118.365 33.3747 117.852 33.1081ZM117.945 37.7166C117.759 38.0614 117.526 38.3123 117.246 38.4533C116.966 38.61 116.516 38.6728 115.879 38.6728H115.242V34.0488L115.708 34.0486C116.562 34.0486 117.2 34.2366 117.572 34.6285C118.007 35.0519 118.225 35.6632 118.225 36.4311C118.225 36.9485 118.132 37.3718 117.945 37.7166Z" fill="white"></path><path d="M80.5703 32.7167H79.1875V40.0369H82.5899V38.7045H80.5703V32.7167Z" fill="white"></path><path d="M57.7435 33.8765C58.567 33.8765 59.3127 34.2212 59.9651 34.9265L60.9284 34.0017C60.5243 33.5314 60.0429 33.1708 59.4991 32.9045C58.9399 32.6536 58.365 32.5283 57.7746 32.5283C57.06 32.5283 56.4073 32.7008 55.8017 33.0455C55.1801 33.3904 54.7142 33.845 54.4033 34.4094C54.0771 34.9736 53.9062 35.6164 53.9062 36.3531C53.9062 37.4817 54.2636 38.4065 54.9937 39.1275C55.7083 39.8484 56.6249 40.209 57.759 40.209C58.3806 40.209 58.9243 40.0993 59.3902 39.8956C59.8717 39.6918 60.369 39.3313 60.9128 38.7984L59.9806 37.8108C59.5922 38.2027 59.2194 38.4847 58.8932 38.6417C58.567 38.7984 58.1941 38.8612 57.7901 38.8612C57.3087 38.8612 56.8891 38.7516 56.5007 38.5321C56.1123 38.3126 55.8172 38.0149 55.5997 37.6387C55.3977 37.2625 55.289 36.8235 55.289 36.3377C55.289 35.6481 55.5377 35.0524 56.0037 34.5663C56.4696 34.1116 57.06 33.8765 57.7435 33.8765Z" fill="white"></path><path d="M47.1031 36.4786C46.9944 36.3534 46.6679 36.0868 46.1398 35.6321C45.5805 35.1463 45.2232 34.8326 45.1143 34.6916C45.0365 34.582 44.9901 34.4721 44.9901 34.3468C44.9901 34.2215 45.0523 34.1116 45.161 34.0177C45.2852 33.9235 45.4252 33.8767 45.6116 33.8767C45.9845 33.8767 46.3418 34.1276 46.7147 34.6291L47.7402 33.72C47.3518 33.2653 47.01 32.9519 46.6838 32.7952C46.3576 32.6228 46.0004 32.5443 45.643 32.5443C45.0838 32.5443 44.6175 32.7324 44.2294 33.0772C43.841 33.4377 43.6545 33.8767 43.6545 34.3782C43.6545 34.7387 43.7787 35.0835 43.9963 35.444C44.2294 35.8045 44.742 36.306 45.5344 36.9488C45.954 37.2779 46.2179 37.5444 46.3424 37.7011C46.4665 37.8736 46.5288 38.0303 46.5288 38.2026C46.5288 38.3908 46.451 38.5475 46.2801 38.6885C46.1248 38.8295 45.9228 38.9079 45.6897 38.9079C45.2391 38.9079 44.8354 38.5788 44.4778 37.9361L43.3125 38.6413C43.5923 39.1899 43.9185 39.5818 44.3069 39.8484C44.6953 40.1151 45.1304 40.2403 45.643 40.2403C46.311 40.2403 46.8394 40.0522 47.2587 39.6446C47.6782 39.2527 47.8802 38.7512 47.8802 38.1556C47.8802 37.8421 47.8179 37.5599 47.7093 37.309C47.5693 37.0273 47.3673 36.7606 47.1031 36.4786Z" fill="white"></path><path d="M33.8828 34.0959H35.1723V40.0369H36.5707V34.0959H37.9068V32.7167H33.8828V34.0959Z" fill="white"></path><path d="M71.0602 35.4754H68.6366V32.7167H67.2227V40.0369H68.6366V36.8235H71.0602V40.0369H72.4582V32.7167H71.0602V35.4754Z" fill="white"></path></svg> 